<?xml version="1.0" encoding="UTF-8"?>
<svg xmlns="http://www.w3.org/2000/svg" xmlns:xlink="http://www.w3.org/1999/xlink" width="35px" height="16px" viewBox="0 0 34 16" version="1.1">
<g>
<path style=" stroke:none;fill-rule:nonzero;fill:#fafafa;fill-opacity:1;" d="M 6.957031 0.105469 C 6.296875 0.3125 4.621094 1.324219 1.605469 3.324219 L 0.078125 4.339844 L 0.046875 4.546875 C 0.03125 4.65625 0.015625 5.414062 0.0195312 6.226562 C 0.0195312 8 0 7.898438 0.402344 8.085938 C 0.621094 8.1875 0.726562 8.265625 0.972656 8.515625 C 1.445312 9 1.664062 9.503906 1.785156 10.398438 C 1.882812 11.140625 2.007812 11.777344 2.121094 12.128906 C 2.714844 13.988281 3.929688 15.132812 5.910156 15.707031 C 6.59375 15.902344 6.851562 15.9375 7.949219 15.953125 C 9.566406 15.984375 10.339844 15.890625 11.378906 15.546875 C 12.597656 15.148438 13.371094 14.628906 14.097656 13.730469 C 14.441406 13.304688 14.601562 12.96875 15.253906 11.355469 C 15.929688 9.695312 16.148438 9.222656 16.386719 8.953125 C 16.566406 8.746094 16.691406 8.695312 17 8.695312 C 17.308594 8.695312 17.433594 8.746094 17.613281 8.953125 C 17.859375 9.234375 18.039062 9.613281 18.757812 11.410156 C 19.34375 12.871094 19.527344 13.242188 19.878906 13.710938 C 20.628906 14.710938 21.800781 15.394531 23.402344 15.773438 C 24.050781 15.925781 24.304688 15.949219 25.640625 15.949219 C 27.046875 15.949219 27.300781 15.921875 27.988281 15.734375 C 29.964844 15.191406 31.238281 14.046875 31.828125 12.273438 C 31.984375 11.808594 32.070312 11.414062 32.15625 10.765625 C 32.195312 10.476562 32.25 10.128906 32.277344 9.992188 C 32.484375 9.03125 32.925781 8.40625 33.648438 8.058594 C 33.992188 7.890625 33.980469 7.96875 33.980469 6.226562 C 33.984375 5.414062 33.96875 4.65625 33.953125 4.546875 L 33.921875 4.34375 L 32.480469 3.382812 C 29.003906 1.0625 27.226562 0.0351562 26.699219 0.0351562 C 26.476562 0.0351562 25.433594 0.523438 24.886719 0.890625 C 24.585938 1.09375 24.359375 1.320312 24.351562 1.441406 C 24.332031 1.714844 24.433594 1.984375 24.640625 2.179688 C 24.886719 2.417969 24.992188 2.40625 25.574219 2.058594 C 26.105469 1.738281 26.414062 1.597656 26.625 1.574219 C 26.78125 1.5625 26.835938 1.578125 27.113281 1.714844 C 27.480469 1.894531 28.121094 2.316406 28.707031 2.757812 C 29.144531 3.089844 29.976562 3.796875 30.179688 4.015625 L 30.300781 4.140625 L 29.070312 4.140625 C 26.1875 4.140625 22.792969 4.40625 21.570312 4.730469 C 21.253906 4.8125 20.253906 5.144531 18.941406 5.601562 C 17.109375 6.234375 17.046875 6.238281 15.9375 5.890625 C 15.722656 5.824219 15.097656 5.613281 14.550781 5.421875 C 12.371094 4.667969 11.867188 4.550781 10.042969 4.382812 C 8.039062 4.203125 6.785156 4.140625 5.011719 4.140625 L 3.695312 4.136719 L 3.960938 3.882812 C 4.792969 3.089844 6.160156 2.074219 6.886719 1.714844 C 7.15625 1.578125 7.222656 1.5625 7.371094 1.574219 C 7.574219 1.589844 7.898438 1.738281 8.449219 2.070312 C 8.871094 2.324219 8.988281 2.367188 9.136719 2.328125 C 9.382812 2.257812 9.648438 1.851562 9.65625 1.542969 C 9.65625 1.355469 9.546875 1.203125 9.253906 0.988281 C 8.734375 0.601562 7.554688 0.03125 7.289062 0.0390625 C 7.21875 0.0390625 7.070312 0.0703125 6.957031 0.105469 Z M 8.515625 5.984375 C 10.484375 6.082031 12.066406 6.367188 12.902344 6.777344 C 13.195312 6.917969 13.523438 7.203125 13.660156 7.433594 C 13.894531 7.835938 13.957031 8.472656 13.882812 9.722656 C 13.785156 11.324219 13.574219 12.011719 12.949219 12.777344 C 11.984375 13.957031 10.597656 14.550781 8.605469 14.632812 C 7.183594 14.691406 5.875 14.34375 4.980469 13.679688 C 4.125 13.042969 3.574219 12.015625 3.378906 10.699219 C 3.332031 10.386719 3.324219 10.152344 3.339844 9.445312 C 3.367188 8.503906 3.414062 8.074219 3.550781 7.632812 C 3.804688 6.828125 4.5 6.242188 5.421875 6.050781 C 5.871094 5.960938 7.394531 5.925781 8.515625 5.984375 Z M 28.253906 6.015625 C 29.394531 6.15625 30.132812 6.695312 30.445312 7.621094 C 30.601562 8.078125 30.640625 8.582031 30.628906 9.824219 C 30.613281 10.894531 30.605469 10.953125 30.519531 11.269531 C 30.042969 13.003906 29.070312 13.996094 27.40625 14.433594 C 26.832031 14.585938 26.394531 14.617188 25.371094 14.597656 C 24.667969 14.585938 24.402344 14.5625 24.140625 14.507812 C 23.464844 14.367188 23.003906 14.210938 22.464844 13.941406 C 21.476562 13.441406 20.734375 12.585938 20.386719 11.539062 C 20.179688 10.925781 20.066406 9.832031 20.097656 8.75 C 20.121094 8 20.148438 7.796875 20.269531 7.550781 C 20.375 7.316406 20.789062 6.917969 21.050781 6.785156 C 21.785156 6.417969 23.574219 6.078125 25.28125 5.984375 C 25.933594 5.949219 27.867188 5.96875 28.253906 6.015625 Z M 28.253906 6.015625 "/>
</g>
</svg>